<?xml version="1.0" standalone="no"?>
<!DOCTYPE svg PUBLIC "-//W3C//DTD SVG 20010904//EN"
 "http://www.w3.org/TR/2001/REC-SVG-20010904/DTD/svg10.dtd">
<svg version="1.0" xmlns="http://www.w3.org/2000/svg"
 width="300.000000pt" height="214.000000pt" viewBox="0 0 300.000000 214.000000"
 preserveAspectRatio="xMidYMid meet">

<g transform="translate(0.000000,214.000000) scale(0.100000,-0.100000)"
fill="#000000" stroke="none">
<path d="M590 2059 c-250 -67 -439 -257 -509 -512 -25 -92 -28 -157 -6 -157 9
0 16 14 20 38 25 158 72 268 159 374 121 146 273 224 461 236 84 6 100 10 103
25 3 15 -5 17 -75 16 -45 0 -110 -9 -153 -20z"/>
<path d="M2650 2041 c-5 -11 -10 -56 -10 -100 l0 -81 -94 0 c-171 0 -309 -45
-468 -152 -64 -43 -168 -154 -208 -223 l-27 -46 -38 58 c-121 182 -299 303
-513 348 -90 19 -322 21 -340 3 -14 -14 -16 -146 -2 -168 7 -12 41 -16 152
-22 211 -9 326 -56 459 -188 124 -123 173 -243 174 -420 0 -119 -28 -212 -95
-314 -56 -84 -102 -130 -189 -185 -99 -63 -171 -82 -344 -90 -115 -5 -150 -9
-157 -21 -16 -25 -12 -156 5 -170 22 -18 302 -8 380 14 184 51 369 187 461
338 l36 59 44 -65 c148 -221 396 -355 657 -356 l97 0 0 -81 c0 -83 10 -119 35
-119 18 0 265 278 265 299 -1 17 -219 279 -247 295 -29 16 -43 -20 -43 -111
l0 -83 -78 0 c-100 0 -175 19 -288 75 -161 79 -277 221 -320 395 -36 142 2
330 92 463 118 172 299 267 511 267 l83 0 0 -81 c0 -82 10 -119 34 -119 16 0
266 284 266 303 0 18 -249 297 -266 297 -7 0 -18 -9 -24 -19z"/>
<path d="M754 1940 c-216 -56 -396 -218 -479 -431 -27 -68 -58 -215 -49 -230
13 -22 33 -7 39 29 24 148 50 217 116 317 118 176 297 280 504 294 84 5 100 9
103 24 3 15 -6 17 -80 16 -46 0 -115 -9 -154 -19z"/>
</g>
</svg>
